<?xml version="1.0" standalone="no"?>
<!DOCTYPE svg PUBLIC "-//W3C//DTD SVG 20010904//EN"
 "http://www.w3.org/TR/2001/REC-SVG-20010904/DTD/svg10.dtd">
<svg version="1.0" xmlns="http://www.w3.org/2000/svg"
 width="512.000000pt" height="512.000000pt" viewBox="0 0 512.000000 512.000000"
 preserveAspectRatio="xMidYMid meet">
<metadata>
Created by potrace 1.14, written by Peter Selinger 2001-2017
</metadata>
<g transform="translate(0.000000,512.000000) scale(0.100000,-0.100000)"
fill="#000000" stroke="none">
<path d="M2315 5109 c-598 -62 -1141 -318 -1566 -739 -196 -195 -361 -424
-484 -675 -93 -189 -138 -310 -185 -500 -61 -243 -74 -355 -74 -625 0 -270 19
-421 79 -649 197 -743 726 -1364 1429 -1677 98 -44 122 -51 112 -36 -2 4 -10
92 -16 194 -20 319 -15 352 167 1125 l156 663 -26 77 c-54 164 -61 380 -17
533 64 223 223 376 403 388 188 12 317 -93 347 -282 18 -116 -3 -234 -104
-568 -107 -355 -110 -367 -110 -453 0 -66 4 -90 26 -137 75 -162 251 -250 442
-220 152 23 255 75 372 185 206 194 325 494 349 882 20 330 -83 626 -289 830
-129 128 -278 210 -475 262 -131 35 -373 43 -522 18 -235 -39 -432 -133 -593
-285 -372 -349 -452 -924 -186 -1339 27 -43 50 -84 50 -92 0 -31 -73 -315 -86
-336 -20 -32 -51 -29 -119 13 -141 84 -243 203 -335 389 -148 298 -178 603
-94 955 80 338 288 647 570 849 107 76 313 178 445 220 383 120 852 121 1195
0 531 -186 891 -594 989 -1118 57 -310 6 -711 -131 -1022 -157 -358 -431 -630
-758 -753 -153 -58 -372 -86 -515 -66 -175 24 -362 119 -444 226 -23 29 -42
52 -43 51 -1 -1 -41 -150 -88 -332 -48 -181 -103 -370 -123 -420 -42 -106
-142 -306 -212 -425 -38 -65 -47 -87 -36 -92 23 -13 255 -67 360 -84 137 -22
482 -30 631 -15 1375 139 2390 1328 2304 2698 -56 876 -543 1646 -1315 2076
-255 143 -569 247 -880 293 -123 18 -478 26 -600 13z"/>
</g>
</svg>
